# xmcd CD database file
#
# Track frame offsets:
#	150
#	21822
#	35309
#	58162
#	74005
#	87251
#	101905
#	116064
#	134723
#	146317
#	162521
#	179397
#
# Disc length: 2602 seconds
#
# Revision: 0
# Processed by: cddbd v1.5.2PL0 Copyright (c) Steve Scherf et al.
# Submitted via: CDex 1.51
#
DISCID=b30a280c
DTITLE=Elika Mahony - Glimmerings
DYEAR=2012
DGENRE=New Age
TTITLE0=Commencement
TTITLE1=Awakening
TTITLE2=Glimmerings
TTITLE3=Dawning
TTITLE4=Daybreak
TTITLE5=Reflection
TTITLE6=Summer Storm
TTITLE7=Realization
TTITLE8=Beloved
TTITLE9=Enchantment
TTITLE10=Evanescence
TTITLE11=Final Journey
EXTD=YEAR: 2012
EXTT0=
EXTT1=
EXTT2=
EXTT3=
EXTT4=
EXTT5=
EXTT6=
EXTT7=
EXTT8=
EXTT9=
EXTT10=
EXTT11=
PLAYORDER=
